<svg xmlns="http://www.w3.org/2000/svg" viewBox="0 0 147.06 33.19"><defs><style>.cls-1{fill:#fdc303;}.cls-2{fill:#1d1d1b;}</style></defs><title>primera_nacional_h</title><g id="Capa_2" data-name="Capa 2"><g id="Capa_1-2" data-name="Capa 1"><rect class="cls-1" width="147.06" height="33.19"/><path class="cls-2" d="M19.63,19.63v3.81h-2V12.6h3.53a6.2,6.2,0,0,1,1.88.25,3.51,3.51,0,0,1,1.31.72,2.79,2.79,0,0,1,.77,1.09,3.75,3.75,0,0,1,.25,1.4,4,4,0,0,1-.26,1.44,3.08,3.08,0,0,1-.79,1.13,3.65,3.65,0,0,1-1.32.73,5.66,5.66,0,0,1-1.84.27Zm0-1.58h1.51a3,3,0,0,0,1-.14,1.68,1.68,0,0,0,.69-.4,1.6,1.6,0,0,0,.41-.63,2.35,2.35,0,0,0,.13-.82,2.18,2.18,0,0,0-.13-.79,1.5,1.5,0,0,0-.41-.6,1.72,1.72,0,0,0-.68-.38,3.12,3.12,0,0,0-1-.13H19.63Z"/><path class="cls-2" d="M26.48,23.44V15.75h1.09a.6.6,0,0,1,.4.1.67.67,0,0,1,.15.36l.1.87A3.44,3.44,0,0,1,29.09,16a1.83,1.83,0,0,1,1.17-.39,1.38,1.38,0,0,1,.85.23L31,17.23a.32.32,0,0,1-.11.19.33.33,0,0,1-.19,0l-.33,0a2.15,2.15,0,0,0-.43,0,1.55,1.55,0,0,0-.55.09,1.18,1.18,0,0,0-.43.26,1.73,1.73,0,0,0-.34.41,3.4,3.4,0,0,0-.27.54v4.74Z"/><path class="cls-2" d="M34.25,13.51a1.13,1.13,0,0,1-.09.45,1.38,1.38,0,0,1-.26.36,1.19,1.19,0,0,1-.38.25,1.07,1.07,0,0,1-.47.1,1,1,0,0,1-.45-.1,1.05,1.05,0,0,1-.37-.25A1,1,0,0,1,32,14a1,1,0,0,1-.1-.45A1.07,1.07,0,0,1,32,13a1.05,1.05,0,0,1,.25-.37,1.23,1.23,0,0,1,.37-.26,1.13,1.13,0,0,1,.45-.09,1.23,1.23,0,0,1,.47.09,1.42,1.42,0,0,1,.38.26,1.44,1.44,0,0,1,.26.37A1.23,1.23,0,0,1,34.25,13.51ZM34,15.75v7.69H32.14V15.75Z"/><path class="cls-2" d="M35.89,23.44V15.75H37a.45.45,0,0,1,.47.34l.12.57a5.66,5.66,0,0,1,.43-.42,2.59,2.59,0,0,1,.47-.32,2.52,2.52,0,0,1,.54-.21,2.09,2.09,0,0,1,.63-.08,1.8,1.8,0,0,1,1.2.39,2.32,2.32,0,0,1,.7,1.05,2.26,2.26,0,0,1,.45-.66,2.45,2.45,0,0,1,.59-.44,2.88,2.88,0,0,1,.69-.26,3.63,3.63,0,0,1,.73-.08,3,3,0,0,1,1.13.19,2.24,2.24,0,0,1,.84.57,2.64,2.64,0,0,1,.51.92,3.9,3.9,0,0,1,.18,1.24v4.89H44.84V18.55a1.63,1.63,0,0,0-.32-1.11,1.16,1.16,0,0,0-.94-.37,1.32,1.32,0,0,0-.53.1,1,1,0,0,0-.43.28,1.25,1.25,0,0,0-.29.46,1.79,1.79,0,0,0-.1.64v4.89H40.37V18.55a1.68,1.68,0,0,0-.32-1.13,1.15,1.15,0,0,0-.91-.35,1.41,1.41,0,0,0-.75.2,2.49,2.49,0,0,0-.65.54v5.63Z"/><path class="cls-2" d="M51.73,15.63a3.89,3.89,0,0,1,1.34.23,3,3,0,0,1,1.06.68,3.28,3.28,0,0,1,.69,1.09,4.08,4.08,0,0,1,.25,1.49,1.18,1.18,0,0,1-.09.56.36.36,0,0,1-.34.15H49.88a3.68,3.68,0,0,0,.21,1,2,2,0,0,0,.43.71,1.62,1.62,0,0,0,.64.42,2.17,2.17,0,0,0,.82.14,2.59,2.59,0,0,0,.78-.1,4,4,0,0,0,.57-.23l.43-.24a.69.69,0,0,1,.35-.1.4.4,0,0,1,.35.17l.53.68a2.81,2.81,0,0,1-.69.6,4,4,0,0,1-.8.39,4.22,4.22,0,0,1-.85.21,5.9,5.9,0,0,1-.83.06,4,4,0,0,1-1.49-.27,3.35,3.35,0,0,1-1.2-.79,3.83,3.83,0,0,1-.81-1.29A5.07,5.07,0,0,1,48,19.43,4.27,4.27,0,0,1,48.29,18,3.53,3.53,0,0,1,49,16.74a3.36,3.36,0,0,1,1.16-.81A3.83,3.83,0,0,1,51.73,15.63Zm0,1.33a1.73,1.73,0,0,0-1.27.45,2.28,2.28,0,0,0-.59,1.3h3.5a2.48,2.48,0,0,0-.1-.68,1.61,1.61,0,0,0-.31-.56,1.42,1.42,0,0,0-.51-.38A1.81,1.81,0,0,0,51.77,17Z"/><path class="cls-2" d="M56.46,23.44V15.75h1.09a.6.6,0,0,1,.4.1.67.67,0,0,1,.15.36l.1.87A3.42,3.42,0,0,1,59.06,16a1.83,1.83,0,0,1,1.17-.39,1.41,1.41,0,0,1,.86.23L61,17.23a.38.38,0,0,1-.11.19.36.36,0,0,1-.19,0l-.34,0a2.09,2.09,0,0,0-.43,0,1.63,1.63,0,0,0-.55.09,1.38,1.38,0,0,0-.43.26,1.7,1.7,0,0,0-.33.41,4.52,4.52,0,0,0-.28.54v4.74Z"/><path class="cls-2" d="M67,23.44a.75.75,0,0,1-.4-.08.52.52,0,0,1-.23-.31l-.16-.55c-.2.17-.39.33-.57.46a3.74,3.74,0,0,1-.58.33,3.43,3.43,0,0,1-.64.21,4.42,4.42,0,0,1-.76.06,2.92,2.92,0,0,1-.9-.13A2.13,2.13,0,0,1,62,23a1.79,1.79,0,0,1-.46-.65,2.34,2.34,0,0,1-.17-.91,1.82,1.82,0,0,1,.23-.86,2.22,2.22,0,0,1,.76-.77,5.18,5.18,0,0,1,1.42-.56A10,10,0,0,1,66,19v-.45a1.69,1.69,0,0,0-.33-1.14,1.19,1.19,0,0,0-1-.37,2.31,2.31,0,0,0-.75.1,3.13,3.13,0,0,0-.52.24l-.41.24a.77.77,0,0,1-.4.1.52.52,0,0,1-.33-.1.83.83,0,0,1-.22-.24l-.33-.59A4.55,4.55,0,0,1,65,15.61a3.07,3.07,0,0,1,1.21.22,2.39,2.39,0,0,1,.9.61,2.61,2.61,0,0,1,.56.94,3.59,3.59,0,0,1,.19,1.2v4.86Zm-2.77-1.15a2.19,2.19,0,0,0,1-.21,2.83,2.83,0,0,0,.81-.62v-1.3a8.92,8.92,0,0,0-1.35.14,3.11,3.11,0,0,0-.87.26,1.16,1.16,0,0,0-.48.36.86.86,0,0,0-.14.46.81.81,0,0,0,.29.7A1.23,1.23,0,0,0,64.22,22.29Z"/><path class="cls-2" d="M74.79,12.61l.16,0a.71.71,0,0,1,.14.1,1.38,1.38,0,0,1,.15.17l5.69,7.26c0-.17,0-.35,0-.52s0-.32,0-.47V12.6h1.78V23.44h-1a.86.86,0,0,1-.41-.08,1,1,0,0,1-.31-.26l-5.66-7.22a3.71,3.71,0,0,1,0,.47c0,.16,0,.3,0,.43v6.66H73.51V12.6h1.28Z"/><path class="cls-2" d="M89.61,23.44a.73.73,0,0,1-.4-.08.48.48,0,0,1-.23-.31l-.17-.55a5.75,5.75,0,0,1-.57.46,3.25,3.25,0,0,1-.57.33,3.43,3.43,0,0,1-.64.21,4.42,4.42,0,0,1-.76.06,2.92,2.92,0,0,1-.9-.13,2.13,2.13,0,0,1-.71-.39,1.94,1.94,0,0,1-.47-.65,2.55,2.55,0,0,1-.16-.91,1.82,1.82,0,0,1,.23-.86,2.14,2.14,0,0,1,.76-.77,5.18,5.18,0,0,1,1.42-.56,10,10,0,0,1,2.2-.26v-.45a1.69,1.69,0,0,0-.33-1.14,1.2,1.2,0,0,0-1-.37,2.31,2.31,0,0,0-.75.1,3.13,3.13,0,0,0-.52.24l-.41.24a.78.78,0,0,1-.41.1.52.52,0,0,1-.33-.1.79.79,0,0,1-.21-.24l-.33-.59a4.55,4.55,0,0,1,3.19-1.21,3.11,3.11,0,0,1,1.21.22,2.56,2.56,0,0,1,.9.61,2.77,2.77,0,0,1,.56.94,3.59,3.59,0,0,1,.19,1.2v4.86Zm-2.77-1.15a2.19,2.19,0,0,0,1-.21,2.83,2.83,0,0,0,.81-.62v-1.3a8.92,8.92,0,0,0-1.35.14,3.11,3.11,0,0,0-.87.26,1.1,1.1,0,0,0-.48.36.86.86,0,0,0-.14.46.81.81,0,0,0,.29.7A1.23,1.23,0,0,0,86.84,22.29Z"/><path class="cls-2" d="M97.7,17.38a.8.8,0,0,1-.16.16.37.37,0,0,1-.23.06.51.51,0,0,1-.28-.09l-.32-.19a2.61,2.61,0,0,0-.44-.2,2.4,2.4,0,0,0-.65-.08,2.08,2.08,0,0,0-.85.17,1.59,1.59,0,0,0-.61.51,2.36,2.36,0,0,0-.37.8,4.86,4.86,0,0,0-.11,1.06,4.1,4.1,0,0,0,.13,1.1,2.28,2.28,0,0,0,.37.8,1.79,1.79,0,0,0,.6.5,1.88,1.88,0,0,0,.8.17A2.1,2.1,0,0,0,96.3,22a3.87,3.87,0,0,0,.46-.24l.32-.24a.47.47,0,0,1,.31-.11.38.38,0,0,1,.34.17l.54.68a3.4,3.4,0,0,1-.67.6,3.83,3.83,0,0,1-.75.39,3.69,3.69,0,0,1-.79.21,5.76,5.76,0,0,1-.82.06,3.38,3.38,0,0,1-1.34-.27,3.16,3.16,0,0,1-1.1-.78,3.53,3.53,0,0,1-.75-1.25,4.85,4.85,0,0,1-.27-1.68A5,5,0,0,1,92,18a3.45,3.45,0,0,1,.72-1.25,3.12,3.12,0,0,1,1.17-.83,4,4,0,0,1,1.6-.3,3.7,3.7,0,0,1,1.51.28,3.56,3.56,0,0,1,1.17.79Z"/><path class="cls-2" d="M101.59,13.51a1.13,1.13,0,0,1-.09.45,1.24,1.24,0,0,1-.64.61,1.07,1.07,0,0,1-.47.1,1,1,0,0,1-.45-.1,1.05,1.05,0,0,1-.37-.25,1,1,0,0,1-.25-.36,1.14,1.14,0,0,1-.1-.45,1.24,1.24,0,0,1,.1-.47,1.05,1.05,0,0,1,.25-.37,1.23,1.23,0,0,1,.37-.26,1.13,1.13,0,0,1,.45-.09,1.23,1.23,0,0,1,.47.09,1.42,1.42,0,0,1,.38.26,1.11,1.11,0,0,1,.35.84Zm-.25,2.24v7.69H99.48V15.75Z"/><path class="cls-2" d="M106.63,15.63a4.13,4.13,0,0,1,1.56.28,3.28,3.28,0,0,1,1.2.78,3.52,3.52,0,0,1,.77,1.25,5.15,5.15,0,0,1,0,3.29,3.52,3.52,0,0,1-.77,1.25,3.33,3.33,0,0,1-1.2.8,4.49,4.49,0,0,1-3.12,0,3.37,3.37,0,0,1-1.21-.8,3.52,3.52,0,0,1-.77-1.25,5.15,5.15,0,0,1,0-3.29,3.52,3.52,0,0,1,.77-1.25,3.32,3.32,0,0,1,1.21-.78A4.13,4.13,0,0,1,106.63,15.63Zm0,6.5a1.65,1.65,0,0,0,1.43-.64,3.29,3.29,0,0,0,.46-1.89,3.33,3.33,0,0,0-.46-1.9,1.91,1.91,0,0,0-2.87,0,3.27,3.27,0,0,0-.47,1.9,3.2,3.2,0,0,0,.47,1.88A1.66,1.66,0,0,0,106.63,22.13Z"/><path class="cls-2" d="M111.85,23.44V15.75H113a.45.45,0,0,1,.47.34l.13.6a4,4,0,0,1,.49-.43,3.87,3.87,0,0,1,.55-.34,3,3,0,0,1,.62-.22,3.26,3.26,0,0,1,.72-.07,2.75,2.75,0,0,1,1.11.21,2.16,2.16,0,0,1,.82.6,2.8,2.8,0,0,1,.49.92,4.07,4.07,0,0,1,.17,1.19v4.89H116.7V18.55a1.72,1.72,0,0,0-.32-1.1,1.25,1.25,0,0,0-1-.38,1.87,1.87,0,0,0-.9.22,3.07,3.07,0,0,0-.79.59v5.56Z"/><path class="cls-2" d="M125.34,23.44a.79.79,0,0,1-.41-.08.51.51,0,0,1-.22-.31l-.17-.55A5.75,5.75,0,0,1,124,23a3.25,3.25,0,0,1-.57.33,3.3,3.3,0,0,1-.65.21,4.22,4.22,0,0,1-.75.06,2.92,2.92,0,0,1-.9-.13,2.13,2.13,0,0,1-.71-.39,1.81,1.81,0,0,1-.47-.65,2.35,2.35,0,0,1-.16-.91,1.71,1.71,0,0,1,.23-.86,2.14,2.14,0,0,1,.76-.77,5.05,5.05,0,0,1,1.42-.56,10,10,0,0,1,2.2-.26v-.45a1.69,1.69,0,0,0-.33-1.14,1.2,1.2,0,0,0-1-.37,2.31,2.31,0,0,0-.75.1,2.8,2.8,0,0,0-.52.24l-.41.24a.8.8,0,0,1-.41.1.52.52,0,0,1-.33-.1.79.79,0,0,1-.21-.24l-.33-.59a4.55,4.55,0,0,1,3.19-1.21,3.11,3.11,0,0,1,1.21.22,2.56,2.56,0,0,1,.9.61,2.77,2.77,0,0,1,.56.94,3.87,3.87,0,0,1,.19,1.2v4.86Zm-2.77-1.15a2.19,2.19,0,0,0,1-.21,3,3,0,0,0,.81-.62v-1.3a8.92,8.92,0,0,0-1.35.14,3.09,3.09,0,0,0-.88.26,1.13,1.13,0,0,0-.47.36.86.86,0,0,0-.14.46.79.79,0,0,0,.29.7A1.23,1.23,0,0,0,122.57,22.29Z"/><path class="cls-2" d="M129.79,12.3V23.44h-1.85V12.3Z"/></g></g></svg>