<svg xmlns="http://www.w3.org/2000/svg" width="133" height="143" viewBox="0 0 133 143">
  <g id="fcf" transform="translate(-1079 -4)">
    <circle id="Elipse_1" data-name="Elipse 1" cx="66.5" cy="66.5" r="66.5" transform="translate(1079 14)" fill="#fff"/>
    <g id="Grupo_32" data-name="Grupo 32" transform="translate(1053.564 -30.225)">
      <g id="Grupo_31" data-name="Grupo 31" transform="translate(31.436 34.225)">
        <path id="Trazado_16" data-name="Trazado 16" d="M67.355,48.965a2.051,2.051,0,0,0-1.369,1.5l0,.077c.008.3.423,2.392.84,4.349,1.624.614,4.457.031,6.019-.291.456-.1.82-.17,1.088-.206a15.908,15.908,0,0,0,2.787-.771c-2.361-2.41-4.473-4.326-5.305-5.161a5.841,5.841,0,0,0-.915-.706,19.924,19.924,0,0,1-3.148,1.206" transform="translate(23.08 -12.869)" fill="#f8da00"/>
        <path id="Trazado_17" data-name="Trazado 17" d="M136.556,83.865a41.972,41.972,0,0,0-4.594-14.874,30.488,30.488,0,0,0-3.243-4.818c-.392.5-1.188.33-1.191.446s.209.8.1,1.013c-.3.6-1.722.706-3.14,2.127-1.928,1.926-5.073,2.449-7.8,2.024a11.073,11.073,0,0,1-7.561-5.225,19.386,19.386,0,0,1-2.668-10.368c0-1.931,1.286-3.893,1.949-5.432.08.039.175.082.268.126a7.321,7.321,0,0,1-.67-.343,10.454,10.454,0,0,0-2.145-.8c-.046.353-.286,1.219-.312,1.689a54.51,54.51,0,0,1-.913,5.47c-.162.82-.1,4.331-.1,4.354-.052.3-.812,1.743-1.114,1.722-.227-.015-.219-9.221-.3-9.42-1.013,2.23-.513,10.185-.505,11.24v1.621c0,.794,0,1.013-1.013,2.227-.258.309-.286,1.33-.884,1.9-.843.812-.938-.271-1.371.064l-.281.222c-.882.7-2.333,2.72-3.034,2.47-.235-.082-1.2-4.834-1.315-5.367-.271-1.217,1.261-5.96,1.335-8.074.067-1.869.608-7.535,1.121-12.4a27.01,27.01,0,0,0-6.883-1.078c-1.642,0-7.984.108-9.077.327a111.981,111.981,0,0,0-18.483,5.032C52.014,53.57,44.25,63.2,41.514,67.787S33.2,86.162,37.686,102.019s10.172,21.654,14.328,26.356,7.765,6.672,16.844,10.172,16.295,3.39,25.482,2.078,21.108-8.092,24.825-11.046,9.626-10.827,11.157-13.343,5.576-10.716,6.672-17.169.217-10.719-.438-15.2" transform="translate(-24.233 -18.193)" fill="#f8da00"/>
        <path id="Trazado_18" data-name="Trazado 18" d="M151.309,36.8c-.289.1-.314.461-.485.7-1.359,1.067-.9,3.735-3.127,3.831a9.629,9.629,0,0,1-2.232,1.018c-.946.534-2.109.51-3.055,1.044-.508-.026-1.237-.049-1.212.606a3.735,3.735,0,0,1-.219,1.843,9.607,9.607,0,0,0-.314,2.789,3.173,3.173,0,0,0,2.011,0c2.4-.363,4.875-.946,7.471-.534.34.34.92.121,1.212.485-.144,0-.338.1-.338.266a6.617,6.617,0,0,0-2.547.438,5.63,5.63,0,0,0-3.008,1.794,1.066,1.066,0,0,1-.387.678,13.791,13.791,0,0,0-2.573,1.139c-.822.2-1.382.727-2.279.7a1.434,1.434,0,0,0-1.041.436.762.762,0,0,0-.147.559c-.266-.1-.459-.923-.993-.436-.559.387-.534,1.139-.7,1.745.363.629-.121,1.212-.072,1.843a3.158,3.158,0,0,0,.387,2.086c-.242.9.17,2.181-.7,2.666a1.014,1.014,0,0,0-.121.874c.291.266.753.072,1.09,0,.173-.121.438-.291.389-.557l1.165-.268c.193.51-.268.776-.461,1.139a23.286,23.286,0,0,0,.17,4.318c.266.534-.17.969-.147,1.477-.217-.072-.508,0-.678-.217-.557.848-.072,1.892-.1,2.836-.144.825.026,2.062-.825,2.328-.606.245-1.261.34-1.624.9a3.506,3.506,0,0,1-.946-.242c-.168-.144-.168-.387-.41-.436.144-.969-.8-1.5-.825-2.377-.317-.436-.363-1.067-1-1.163-2.328,1.212-3.323,3.759-5.383,5.238-.121.459.314,1.356-.34,1.526a22.578,22.578,0,0,0-4.145,2.887c-2.354.121-4.583,1.624-6.986.557-.557-.1-1.333.049-1.794-.314C112.365,80.473,112,78.388,110.23,78c-.412-.436-.242-1.139-.51-1.647.2-.946-.485-1.529-.92-2.111a30.38,30.38,0,0,1-1.578-5.359,9.264,9.264,0,0,0-.217-2.351c.291-1.48.193-3.13.969-4.413a15.658,15.658,0,0,1,.485-2.23c.314-1.116.9-2.134,1.165-3.274a1.177,1.177,0,0,0-1.48-.438c-.606.461-1.454.461-1.866,1.188a1.44,1.44,0,0,0-1.188.825,38.246,38.246,0,0,1-.485,5.991c-.147.848.363,1.817-.268,2.472-.147,2.111.387,4.292-.461,6.159l-.144-.049c.291-2.957-.242-6.037.314-8.948.1-.289-.144-.508-.363-.655a.849.849,0,0,0-.678.534,8.947,8.947,0,0,0-.632,3.833c-.193.58.242,1.261-.219,1.7a16.725,16.725,0,0,1-.17,2.934c.366,1.48.026,2.91.317,4.413a12.825,12.825,0,0,1-1.575,3.274.884.884,0,0,1-.317.727.794.794,0,0,0-.871.438c-.049.436-.608.1-.825.314a4.388,4.388,0,0,0-1.869,1.7h-.485c-.217-1.841-.727-3.612-1.09-5.406-.072-3.274-.389-6.548-.389-9.92l-.1-.072a18.863,18.863,0,0,0-.17,2.037c-1.431.1-2.934.34-4.413.317-.923.655-.389,1.964-.776,2.885-1.067,3.008-.753,6.6-1.457,9.773-.1,1.116-.144,2.328-.242,3.4.7.436,1.624.1,2.426.144a166.607,166.607,0,0,1,18.092-.583c.338-.1.363-.508.508-.773a56.184,56.184,0,0,1,.534-7.373c.825.946,1.7,1.843,2.57,2.691a9.792,9.792,0,0,1-.121,2.812c.632.8-.655,2.521.9,2.642,2.668-.121,4.973.608,7.422.972.193.023.363-.193.412-.34a15.046,15.046,0,0,0-2.328-3.71v-.193c.8-.049,1.552-.219,2.328-.34A45.765,45.765,0,0,1,125,88.256a13.148,13.148,0,0,0,1.139,2.183c.583,1.526.727,3.248,1.382,4.754.7,4,1.843,8.51.7,12.536.485.8,1.5.825,2.351.776.147.291.485.291.753.363l.485-.144c2.062.1,3.808,1.067,5.893,1.018a1.012,1.012,0,0,0,1.044,0c.531-.317,1.137-.1,1.7-.366,1.09-.482,1.457-1.794,2.521-2.181a4.288,4.288,0,0,1,4.2,1.4c.072.219.023.487.217.655a5.855,5.855,0,0,1-.508,3.663c-.825,1.09-1.431,2.691-3.032,2.57a3.592,3.592,0,0,1-1.915-.291c-.291.147-.242-.242-.485-.219-1.286-.363-1.529-2.037-2.645-2.617-.072-.124-.168-.268-.314-.268-3.588.049-6.741-1.09-10.257-1.041l-.268.266c-1.067,2.763-2.351,5.432-3.444,8.2a1.973,1.973,0,0,0-.485,1.041c-1.431,1.431-2.037,3.248-3.346,4.632-.17.727-1.333,1.188-.848,2.013.776.652,1.866.168,2.812.436a61.29,61.29,0,0,1,7.93,1.745c.412-.242.8-.023,1.237.049a11.339,11.339,0,0,1,1.552.436c.17.266.583.147.848.34A17.332,17.332,0,0,1,137,131.2c.485.608.1,1.48.219,2.281-.681,1.212-2.6.8-3.857.7-1.067-.387-1.988-.8-3.078-1.139-.34-.387-1.188-.168-1.286-.822-.219-.291-.606-.219-.9-.366-1.214-.655-2.74-.119-3.929-.776-1.261-.17-2.426-.534-3.686-.7-1.529.314-3.4-.534-4.607.58-1.529,1.8-3.663,2.547-4.947,4.439-3.784,3.274-8.077,5.53-12.392,7.783-.753.874-3.1.776-2.4,2.524.168,1.114.871,2.011,1.09,3.1a55.3,55.3,0,0,0,2.23,5.406c.17.366.727.147.655.657a27.135,27.135,0,0,0,2.4,3.975,14.474,14.474,0,0,0,.7,1.382,11.776,11.776,0,0,1,0,1.624,4.129,4.129,0,0,0-.969.972c-1.745-.485-2.377-1.843-3.614-3.032-.266-.583-.534-1.261-.8-1.915a6.825,6.825,0,0,1-.485-1.165,2.627,2.627,0,0,0-.51-.969,19.337,19.337,0,0,0-1.261-3.493c-1-2.181-1.7-4.509-3.369-6.329a52.7,52.7,0,0,1-9.654.534,24.426,24.426,0,0,0-5.019-.969,41.758,41.758,0,0,1-6.813-2.134c-1.866-.193-3.3-1.431-4.97-2.135-.415-.217-.753-.727-1.263-.629-.485,1.116-.1,2.377-.1,3.588-.147,1.454.629,2.642.534,4.148.338.436.217,1.067.485,1.526,0,1.214.848,2.183.606,3.4-.508.1-.727-.291-1.188-.34a14.886,14.886,0,0,0-2.037-.822c-.363-.8-1.214-.874-1.624-1.627.58-.946-.147-2.011-.219-3.006-.606-3.055-.9-6.233-1.261-9.386-.17-.41-.655-.314-1-.265-2.642,1.261-5.53,1.915-8.172,3.153-.072.412-.557.291-.825.265-.9-.289-.7-1.356-.969-2.109a3.884,3.884,0,0,1,.436-1.359l.534-.436c2.134-.8,4.194-1.745,6.329-2.57.678-.291,0-.776.075-1.214-1.627-2.934-4.148-5.5-5.313-8.657a18.714,18.714,0,0,1-1.454-3.346c-.606-.678-.606-1.673-1.116-2.4a18.866,18.866,0,0,1-.871-5.553,56.01,56.01,0,0,1-.851-8.2c-.242-2.328.268-4.509.412-6.764-.825-.727-2.134-.291-3.032-.049A22.725,22.725,0,0,1,38.4,99.823a8.34,8.34,0,0,1-2.328.534v.072c-.075-.8-.389-1.841.1-2.521.1-.049.072-.17.072-.266.268.629.946-.075,1.408-.075,2.109-1.09,4.656-1.186,6.767-2.279l3.369-1.041c.363-.678.436-1.456.776-2.134a45.674,45.674,0,0,1,4.027-7.419c.727-.972.92-2.5,2.181-2.936,1.382-1.915,3.274-3.274,4.973-4.921.969-.923,2.619-.946,3.225-2.281.557-1.431.632-3.1,1.431-4.46.217-1.237,1.163-2.328.92-3.663a27.375,27.375,0,0,0,.8-4.486,2.838,2.838,0,0,1,.023-2.23A3.588,3.588,0,0,1,67.6,57.362a1.794,1.794,0,0,1,1.48.874C69.853,60.781,69,63.6,68.3,66c.121,1.261-.75,2.086-.629,3.323L67.6,70.747a1.439,1.439,0,0,0,1.263.147c3.563-1.212,7.128-2.328,10.742-3.418a4.89,4.89,0,0,0,1.866-.438c1.941-.072,3.686-.75,5.723-.436.291,0,.242-.315.317-.508.7-3.008,1.018-6.161,1.745-9.167-.291-.291-.193-.606-.147-.972.17-.531.51-.943.655-1.477.923-.34,1.578.436,2.573.17-.026.121.072.193.144.266-.121.606.825,1.5-.144,1.843a3.676,3.676,0,0,0-.438,1.65c-.436,2.666-.874,5.334-1.116,8.074.242.7,1.116.291,1.65.534.7-.1,1.941-.461,2.354.34.193,0,.266-.17.314-.317.291-3.029.436-6.11.874-9.118.046-.7.436-1.4.17-2.083.338-.923-.124-1.843.217-2.766l-.049-3.88c-.266-.217-.217-.776-.121-1.09.606-.632,1.627-.485,2.354-1.139,1.139-.242,2.256-.534,3.369-.825a38.607,38.607,0,0,1,12.126-.946l.1.17c-.73.606-1.771.387-2.5,1-.559.046-.972.606-1.627.531-1.333.825-2.836,1.214-4,2.256-.17.219-.266.412-.049.632a.953.953,0,0,1,.534.776c.219,1.018-.655,1.7-.266,2.668.144.121.387.291.557.121l.655.144h5.383a36.156,36.156,0,0,0,5.481-6.208c0-.534.51-.9.753-1.359.583-1.31,1.915-1.7,2.959-2.619.848-.046,1.5.655,2.449.534a5.02,5.02,0,0,1,2.351,1.578,6.612,6.612,0,0,0,1.941,2.691c-.632.023-1.044.825-1.794.8-1.261,1.431-3.4,2.037-4.027,3.954-.534.242-.557.871-.7,1.356a5.26,5.26,0,0,0-.459,1.142c-.9.75-1.408,1.866-2.281,2.666-.121,1.018-1.431,1.116-1.431,2.134.412.266.9-.121,1.335-.17a20.377,20.377,0,0,1,3.637-.92l.049-.1a20.186,20.186,0,0,1,3.225-.17c.144.17.023.317,0,.485-1.7,1.286-3.759,1.964-5.336,3.444a15.513,15.513,0,0,1-3.176,1.745c-.946.314-1.673,1.142-2.57,1.48-.606.412-1.408.534-1.794,1.188.049,1.335-.874,2.74-.219,4.148-.049.41-.17.992.268,1.212.8-.389,1.526.219,2.423,0,1.382-.072,3.032.242,4.2-.436a14.1,14.1,0,0,0,2.23-.73,6.481,6.481,0,0,1,1.359-.436c.17-.219.485-.121.7-.266,2.207-.8,4-2.086,6.182-2.936a11.444,11.444,0,0,0,2.281-1.261c-.147-1.382.315-2.934-.219-4.266.049-3.055-.121-6.233.049-9.265.315-.436.1-1.09.242-1.6.266-.559,0-1.31.412-1.8.193-2.279.461-4.509.606-6.813-.51-1.018-1.575-1.771-1.09-3.153a8.923,8.923,0,0,1,1.915-.727,71.29,71.29,0,0,1,12-2.06c1.552,0,2.887-.34,4.462-.219Z" transform="translate(-24.385 -30.624)" fill="#161615"/>
        <path id="Trazado_19" data-name="Trazado 19" d="M77.9,34.9c-.485.389-.17,1.09.049,1.529.363.655.946-.389,1.261.436.072.266.387.606.219.825a.7.7,0,0,0-.1.8.993.993,0,0,0,1.237.485c.217-.266.9-.072.727-.655-.2-.315-.583-.363-.727-.655.023-.58-.17-1.333.508-1.575.606-.17.753.461,1.31.389a5.533,5.533,0,0,1,2.134.315c0,.557-1.408.92-.508,1.552.121.75.023,1.673.727,2.109.557.363-.363.825.314,1.044.583.217.655-.485.969-.753a17.118,17.118,0,0,1,1.771-2.183c.121-.557-.681-.848-.825-1.09,1.892-.946,3.614.7,5.6.268-.023-.049,0-.049.023-.075.147.487-.242.9-.168,1.431-.2.559-.825.681-1.261.923-.487.387-1.384.7-1.214,1.575-.678.438-.1,1.408-.848,1.771a1.592,1.592,0,0,1-.389.92c-.289.1-.8.1-.776-.338-.992-.268-1.041.992-2.109.557a12.509,12.509,0,0,0-2.181-.557,25.674,25.674,0,0,0-8.2-.219c-.219.147-.583.072-.825.219-.874.461-2.086.387-2.789,1.261-.023.34-.315.363-.58.485a3.483,3.483,0,0,0-1.142.606c-.17,0-.363-.193-.508,0,.072.17.387,0,.338.268-.072,0-.1-.075-.168-.049l-.124.121.026.049c-.291.534-1.31.17-1.335,1.018-.363,0-.678.338-.92,0-.17-.874-1.237-1.018-1.624-1.673-.389-.049-.17-.583-.17-.825.1-.534.753-.969.268-1.48-.681.34-1.044-.508-1.676-.583-.168-.583-.436-1.31-1.114-1.382-.147-.266-.655-.049-.534-.485-.219-.1-.1-.314-.121-.485.534-.727,1.5.17,2.132-.436a2.758,2.758,0,0,1,1.312.266.372.372,0,0,0,.217.314c.485.026.7-.363.874-.75.072-.438.485-.534.825-.776.606-.438,1.31-.874,1.915-1.31.606.049.412.485.7.9-.2.121-.147.412-.1.583.242.193-.147.363-.072.606a.724.724,0,0,0,.946.315.7.7,0,0,1,.655-.1c.266.242.338,1.018.848.7a.513.513,0,0,0,.436-.363c-.049-.92-1.188-1.382-.7-2.426.245-.363.972-.363,1-.969-.023-.534.147-1.116.655-1.261.193-.049.412-.049.534-.268.17-.144.049-.387,0-.557a.666.666,0,0,1-.17-.8c.147.049.219-.268.461-.219A4.058,4.058,0,0,1,77.9,34.9m2.4,5.189c.1.1-.049.268.121.315-.144.075-.338.219-.508.1-.17-.023-.291-.193-.363-.315-.1-.559.58-.242.75-.1m-8.437,1.892c.046.121-.075.291.1.338.072.1.2.026.268.1a.346.346,0,0,0,.121-.266c0-.245-.389-.363-.485-.17m-2.086-.268a.526.526,0,0,1-.219.438c-.268.046-.534-.049-.485-.34,0-.2,0-.389.17-.438a.588.588,0,0,1,.534.34" transform="translate(17.48 -34.225)" fill="#161615"/>
        <rect id="Rect치ngulo_22" data-name="Rect치ngulo 22" width="0.024" height="1.721" transform="translate(114.412 23.974)" fill="#161615"/>
        <path id="Trazado_20" data-name="Trazado 20" d="M75.793,48a19.905,19.905,0,0,1-.049-2.959l.072.026Z" transform="translate(38.402 -17.161)" fill="#161615"/>
        <rect id="Rect치ngulo_23" data-name="Rect치ngulo 23" width="0.024" height="0.727" transform="translate(113.976 30.934)" fill="#161615"/>
        <path id="Trazado_21" data-name="Trazado 21" d="M64.907,50.72c.291,1.165.8,2.232,1.09,3.372h.1v.1c-1.261.072-2.16-.92-3.225-1.4a5.9,5.9,0,0,1-.049-3.444c.825.268,2.013.219,2.086,1.382" transform="translate(17.714 -10.378)" fill="#161615"/>
        <path id="Trazado_22" data-name="Trazado 22" d="M51.687,53.364c-.026,3.857-.946,7.419-1.237,11.229a.528.528,0,0,1-.338.436c-2.645-.049-4.754,1.212-7.3,1.431-.268-.026-.8.121-.678-.34-.026-.34.291-.534.387-.825.266-1.018,1.044-1.794,1.165-2.836C44.8,61.2,45.116,59.621,46.3,58.383c1.843-1.624,2.91-4.073,5.212-5.019Z" transform="translate(-14.585 -4.025)" fill="#c10000"/>
        <path id="Trazado_23" data-name="Trazado 23" d="M76.174,56.592c.144.049.338.147.387.291.219,3.735-.412,7.419-.121,11.18.121,2.5.291,5.042.34,7.517l-.219.168a101.989,101.989,0,0,0-12.877,1.408c-2.521.049-4.7.1-7.226-.049-.315-.508.023-1.139-.147-1.7-.485-1.335-.072-2.717-.387-4.122-.291-2.57.51-4.924.17-7.494.266-.363-.17-.874.217-1.188-.168-1.722.51-3.323.268-5.189L56.8,57.2c2.5-.291,5.068-.459,7.589-.7,3.929.046,8,.121,11.786.1" transform="translate(7.101 0.918)" fill="#fff"/>
        <path id="Trazado_24" data-name="Trazado 24" d="M76.59,58c1.431.8,1.261,2.668,2.183,3.808.993,2.23.9,4.924,1.624,7.249a20.853,20.853,0,0,1-.1,7.058l-.217.219-11.3-.026a24.684,24.684,0,0,1-3.323-.485c-.121-.8-.121-1.624-.17-2.449a42.134,42.134,0,0,1-.266-6.282,25.534,25.534,0,0,1,.1-3.055,43.421,43.421,0,0,1,.557-7.2l.217-.217c3.808-.049,6.914,1.454,10.7,1.382" transform="translate(21.478 1.11)" fill="#c10000"/>
        <path id="Trazado_25" data-name="Trazado 25" d="M67.748,57.653c.026,3.1-.242,6.135-.268,9.167-.387,1.5.17,2.959.049,4.486-.217,1.48.026,3.032-.049,4.511-2.325,1.212-5.212,1.041-7.783,1.65-2.377.338-4.511,1.235-6.888,1.575-.436.363-1.09.242-1.624.389-1.431-.17-2.619.75-4.1.485a40.918,40.918,0,0,1-.871-6.282c.7-3.612.266-7.347.871-11.008a1.007,1.007,0,0,1,.049-1.044c1.116-.92,2.668-.8,4.05-1.041l15.5-3.372c.34-.193,1.333-.266,1.067.485" transform="translate(-8.117 1.773)" fill="#f8da00"/>
        <path id="Trazado_26" data-name="Trazado 26" d="M76.562,65.419c.969,1.7.291,3.906.92,5.723a47.579,47.579,0,0,0,.825,6.282,16.136,16.136,0,0,1,.315,4.46c-.871.147-1.745-.459-2.668-.17-.289.147-.629.461-.993.219a.806.806,0,0,0-.583-.144c-.242.776-.825.023-1.212-.049-.8.266-1.843-.049-2.524.485-.314.072-.485-.1-.7-.219-.753.7-1.48-.049-2.354.317-2.959.144-5.723.193-8.608.606-1-2.013-1.067-4.39-1.7-6.548A45.1,45.1,0,0,1,56.142,66.9c.34-.363.874-.315,1.261-.557,3.055-.147,6.306.338,9.216-.268l4.8-.485c1.4-.606,3.346-.266,4.9-.291Z" transform="translate(7.539 14.692)" fill="#c10000"/>
        <path id="Trazado_27" data-name="Trazado 27" d="M77.8,65.465c.557.992-.412,1.817-.508,2.74-.268.193-.049.534-.219.75a17.787,17.787,0,0,0-1.48,3.057c-1.09,1.719-2.086,3.222-3.032,4.921-1.333,1.408-2.426,3.006-3.733,4.341-.412.072-.655-.193-1.021-.219A28.745,28.745,0,0,1,66.6,75.235c-.606-2.06-.583-4.388-1.044-6.5a11.53,11.53,0,0,1,0-3.153l.34-.17,6.063.219a.871.871,0,0,1,.534-.268c1.7.242,3.539-.072,5.31.1" transform="translate(22.229 14.914)" fill="#f8da00"/>
        <path id="Trazado_28" data-name="Trazado 28" d="M48.735,68.065c.144,1,.072,1.964.219,2.887a75.678,75.678,0,0,0,.168,8.437,20.646,20.646,0,0,1,.049,3.006c-.485-.072-.946-.629-1.307-1.041-1.8-1.941-2.5-4.364-4.052-6.476.049-.7-.8-1.163-.485-1.866-.8-.412-.193-1.575-.871-1.892a2.232,2.232,0,0,1-.438-1.552c1.892-.92,4.027-1.212,6.014-1.892.317-.023.753-.023.7.389" transform="translate(-14.785 18.545)" fill="#fff"/>
        <path id="Trazado_29" data-name="Trazado 29" d="M76.728,73.141c-.531,1.869-2.619,2.547-3.88,3.759-2.715,1.431-5.334,3.251-8.123,4.488-1.5.387-2.789,1.333-4.292,1.719-.75-.606-.655-1.719-1.044-2.544a4.4,4.4,0,0,1-.92-2.3,8.119,8.119,0,0,1-.655-2.449,2.056,2.056,0,0,1-.17-1l.363-.217c5.408-.851,11.131-1.021,16.612-1.529.583.072,1.261.242,1.722-.144.17-.026.387.023.387.217" transform="translate(9.917 26.83)" fill="#fff"/>
        <path id="Trazado_30" data-name="Trazado 30" d="M71.385,74.046c.776,3.055,2.183,5.939,2.4,9.19-1.988.629-3.467,2.5-5.89,2.013-1.6.046-2.983-.583-4.56-.487a8.437,8.437,0,0,0-3.055-1.114c-1.843-1.188-4-1.6-6.014-2.377-2.6-.825-5.432-1.09-7.517-3.225l-.072-.219c.482-.363,1.212-.266,1.794-.485,7.468-1.333,14.815-3.153,22.6-3.661Z" transform="translate(-7.39 28.036)" fill="#c10000"/>
        <path id="Trazado_31" data-name="Trazado 31" d="M65.342,59.215l10.582,1.217-4.078-4.759s-3.921-.356-6.1-2.281l-.505.356Z" transform="translate(21.904 -3.981)" fill="#fff"/>
        <path id="Trazado_32" data-name="Trazado 32" d="M44.868,52.55c-.1.193-.242-.023-.338-.049a.826.826,0,0,1-.219-.7l.219-.266c.459.121.412.655.338,1.018m8.687-4.8a1.961,1.961,0,0,1-.34,1.988c-.17.072-.338.291-.387-.023A2.3,2.3,0,0,1,53,48.085a.472.472,0,0,1,.217-.485c.147,0,.268,0,.34.147m.1-3.155a1.054,1.054,0,0,0,.217.7,5.244,5.244,0,0,0,1.165,2.959c.219.753-.34,1.286-.51,1.918-.436.049-.606.485-1.041.436-.34.242-.779.1-1.237.144-.121-.217-.412-.289-.655-.363-.51.753-1.361.828-2.039,1.24a2.265,2.265,0,0,0-1.408.92c-.121.072-.291.023-.436.023-.049-.168-.049-.485-.17-.508.1-.193.291-.268.436-.436a2.729,2.729,0,0,0,1.748-1.263c.1-.412-.17-.655-.389-.92-.51-.173-.874.289-1.359.266-.266.291-.848.144-1.237.121a.187.187,0,0,0-.072-.219h-.147a3.652,3.652,0,0,0,1.846-1.866.354.354,0,0,0-.219-.438c-.485.121-.946.438-1.408.559-.34.072-.583.534-.825.655-.291.144-.17.583-.072.776l.291.436c-.17,1.6.51,3.008.266,4.635-.242.389-.848.266-1.261.17-.727-.485-1.359-1.433-2.111-1.967a.546.546,0,0,0-.727.317c-.1.461.34.727.291,1.188.193.193.144.557.412.776a1.7,1.7,0,0,0,.436,1.139l.026.438c-.34.049-.9.291-1.165.121-.727-1.142-1.067-2.475-2.013-3.542-.389-.291-.851.049-1.214.193a8.173,8.173,0,0,0-1.578,1.044c-.121-.072-.023-.317-.219-.268.075-.848.828-1.212,1.384-1.7a2.446,2.446,0,0,1,1.794-.389c.51.242,1.312.8,1.918.34.461-.851-.583-1.31-.776-1.869l-.049-.315c.485.072.946.387,1.48.436a.712.712,0,0,0,.753.121,1.57,1.57,0,0,0,.7-.825,1.578,1.578,0,0,1-.147-1.31c.949.387,1.021-.8,1.748-.825.825-.606,1.578-1.48,2.815-1A7.331,7.331,0,0,1,51.1,49.568c.438-.219.412-.73.534-1.142,0-.7.534-1.31.268-2.037-.363-.242-.874-.075-1.237-.317l-1.382-.121v-.219h3.225c.317-.266.144-.606.121-.969a3.88,3.88,0,0,1-.387-1.09c.557.17,1.261.291,1.408.92" transform="translate(-22.225 -19.318)" fill="#161615" fill-rule="evenodd"/>
        <path id="Trazado_33" data-name="Trazado 33" d="M46.515,83.392c-.168,1.237-1.382,1.7-2.354,2.134l-.485.147c-.219-.268.147-.632.317-.825a5.176,5.176,0,0,1,1.477-1.191,1.23,1.23,0,0,1,.608-.485c.144.124.461-.072.436.219m.17-.946c1.067.121.485,1.335.874,1.915.121.147.389.1.534.049.242-.412.485.072.776.072a4.8,4.8,0,0,1,2.6,1.627c-1.116.51-2.354-1.431-3.032.268.049.776.727,1.188,1.286,1.48.1-.026.17.072.291.046-1.093.291-1.941-.387-2.962-.266a1.218,1.218,0,0,0-.8.7,2.687,2.687,0,0,0,2.183,1.335c-.049.168.17.629-.219.629v.121a4.123,4.123,0,0,1-1.7-.485c-.508-.315-1-.681-.92-1.431-.268-.17-.17-.632-.124-.923.219-.144.124-.485.1-.7-.266-.583-.678,0-1.018,0a4.784,4.784,0,0,1-1.794.8c-.828,0-.559-1-.73-1.529.049-.193-.144-.583.17-.583a29.579,29.579,0,0,1,2.74-3.13,1.458,1.458,0,0,1,1.748,0" transform="translate(-14.748 41.404)" fill="#161615" fill-rule="evenodd"/>
        <path id="Trazado_34" data-name="Trazado 34" d="M55.8,88.187s-.864-1.266.505-1.266a1.239,1.239,0,0,1,1.165.152s.608.3.353.709c0,0,.052.4-.505.657,0,0-.356-.2-.557-.1Zm1.418,2.2c.023.606-.848.557-1.261.871-.366,0-.972.2-1.142-.193A1.216,1.216,0,0,1,55.3,89.8a3.3,3.3,0,0,1,1.918.583m-3.712-4.95a5.318,5.318,0,0,0,1.431.534c1.335.193,2.985,0,3.712,1.163.366.268.2.681.219,1.07-.242.485-1.359.7-.874,1.48.461.266.412.678.655,1.041l-.266.608c-.461.17-.681.606-1.214.606-.193.17-.557.023-.655.315a6.526,6.526,0,0,0-2.135.487c-.606.023-.291-1.044-.438-1.482-.363-.655.075-1.31.124-1.964.242-.291.242-.75.436-1.09.049-.412.315-.923-.049-1.286-.387-.026-.776-.317-1.165-.075-.387.73-.629,1.408-1.018,2.088a5.448,5.448,0,0,0-.51,1.529c-.193.219.049.8-.387.753v.121c-.049-.147-.1-.366-.219-.438a3.3,3.3,0,0,1,.389-2.668c-.026-.534.58-.874.387-1.431-.412-.438-1.457-.632-1.041-1.529a3.384,3.384,0,0,1,2.134.121Z" transform="translate(-0.897 46.132)" fill="#161615" fill-rule="evenodd"/>
        <path id="Trazado_35" data-name="Trazado 35" d="M57.332,88.33a2.932,2.932,0,0,1-1.676,1.915c-.387.1-.629-.144-.92-.315.023-.92.969-1.624,1.794-2.013.363.049.825-.121.8.412m3.954-2.6c.242.023.023.17.1.314a.121.121,0,0,1-.1-.049,10.117,10.117,0,0,0-1.431,3.325c-.026.387.436.34.655.485a22.46,22.46,0,0,1,3.153-.17l-.219.17A5.313,5.313,0,0,1,61,91.119c-.315.317-.851.121-1.261.17-.681-.461-.657-1.188-1.07-1.794-.9.217-1.552,1.31-2.3,1.575a1.5,1.5,0,0,1-1.408.17c-.557-.193-.7-.825-.871-1.431a3.137,3.137,0,0,1,.266-1.529c.193-.072.242-.266.389-.436.557-.874,1.915-.9,2.111-2.062.1.049.144-.049.217-.075a1.875,1.875,0,0,1,1.529,1.214c.147.072.072.363.219.534.147.121.1.314.291.438.363.072.436-.366.655-.534,0-.242.291-.389.266-.657.317-.436.585-1.261.972-1.359Z" transform="translate(4.279 46.437)" fill="#161615" fill-rule="evenodd"/>
        <path id="Trazado_36" data-name="Trazado 36" d="M50.089,84.469c.655.219,1.359.436,2.013.655a.618.618,0,0,1,.217.727c-.8.17-1.552-.266-2.279-.121-.461.17-.34.681-.655.923-.2.461.315.485.485.727a2.6,2.6,0,0,0,.874.268c.168.193.606.289.436.606-1.212.436-2.936-.632-3.591.969l-.266,1.384c-.049-.049-.17-.023-.245-.023-.046-.075.1-.1,0-.147a2.064,2.064,0,0,1-.436-1.915c.363-.73.753-1.457,1.116-2.186.219-.534.776-1.188.315-1.843h-.1c.144-.412.8-.291,1.188-.242.219.193.606.121.923.219" transform="translate(-7.524 44.622)" fill="#161615"/>
        <path id="Trazado_37" data-name="Trazado 37" d="M51.087,85.217c.049.217.17.485-.046.655a3.871,3.871,0,0,0-1.312,2.013,1.726,1.726,0,0,0-.436.923c.072.338,0,.8.412.92a3.469,3.469,0,0,0,1.988-1.722c.219-.559.438-1.116.657-1.7a2.484,2.484,0,0,1,.315-1.139c.363-.075.534.315.7.485a2.96,2.96,0,0,1-.219,1.843c.1.317-.266.317-.266.608-.73.993-1.165,3.032-2.936,2.57a3.263,3.263,0,0,1-1.382-3.057,6.865,6.865,0,0,1,1.817-2.74c.389-.026.461.17.7.34" transform="translate(-4.471 45.694)" fill="#161615"/>
        <path id="Trazado_38" data-name="Trazado 38" d="M41.2,52.687a3.455,3.455,0,0,1-.923,2.281c-.438-.075-.606-.412-.825-.753-.291-.9.412-1.529,1-2.013.291.072.655.144.753.485m.387-1.139c.314.242.606-.1.923-.17l.291-.049a3.254,3.254,0,0,1-1.384,3.106c-.606.266-.193,1.163-.874,1.431A11.393,11.393,0,0,0,39.4,58.1a5.6,5.6,0,0,1-.753.753c-.193-.923,1-1.99,0-2.766-.023-.242-.291-.412-.461-.559-.534-.1-.776.655-1.09,1a4.789,4.789,0,0,0-.874,1.505v.168a1.794,1.794,0,0,1-.049-1.018c.34-.219.049-.727.436-.9.049-.655.874-1.457.124-1.964-.412-.147-.7.193-.923.461-.144.75-.9,1.116-1,1.892l-.266.338c.1-.168-.17-.168-.17-.168a3.566,3.566,0,0,1,.923-2.573,2.667,2.667,0,0,1,2.885-.753c.559.049.7-.508.9-.92.193-.632,1.067-1.433.266-1.99a3.492,3.492,0,0,1-.923-.632l.219-.219a6.233,6.233,0,0,1,2.936,1.8" transform="translate(-26.799 -9.726)" fill="#161615" fill-rule="evenodd"/>
        <path id="Trazado_39" data-name="Trazado 39" d="M38.518,55.557c.268.173.7.366.825.706a.751.751,0,0,1-.485.557,2.181,2.181,0,0,1-1.99-1.359c-.121-.291-.363-.655-.144-1,.753.17,1.139.8,1.794,1.09M36.989,52.84a17.72,17.72,0,0,1,2.088,1.529c.485.487,1.188.776,1.578,1.237h-.121c-.608.851-1.021,1.846-1.967,2.137a.521.521,0,0,0-.144.606c.655.242.436,1,.363,1.529-.268.387,0,1-.387,1.31a11.971,11.971,0,0,1-.706,1.7l-.17-.075c-.1.075-.046.2-.046.294a1.823,1.823,0,0,0-.438-1.165c.147-.632.147-1.482.268-2.183-.147-.193-.075-.559-.412-.534-.461.049-.632.508-.874.825-.242.41-.34.9-.606,1.31.121.242-.219.268-.268.387-.412.075-.266-.606-.291-.946.049-.969.7-1.673.51-2.717a.961.961,0,0,0-.681-.338c-.459.387-.534.848-.848,1.261a3.323,3.323,0,0,0-.438,1.578c-.338.266-.338-.268-.508-.366-.147-.629.242-1.065.266-1.647A2.95,2.95,0,0,1,34.54,57.04c.315-.366.969.023,1.139-.536.1-.8-.629-1.526-.17-2.4a1.346,1.346,0,0,1,.34-1.263,4.679,4.679,0,0,1,1.139,0" transform="translate(-29.194 -4.907)" fill="#161615" fill-rule="evenodd"/>
        <path id="Trazado_40" data-name="Trazado 40" d="M37.111,59.663c-.049.363.121.848-.317.969-.387-.049-.412-.485-.557-.753a.681.681,0,0,1,.242-.7c.242.168.461.217.632.485m-3.034-3.13a25.6,25.6,0,0,0,2.838,1.382c.412-.291.583.17.972.17a3.917,3.917,0,0,1-.438,2.6v.17a1.612,1.612,0,0,1-1.624.7c-.534-.534-1.188-.923-1.044-1.8-.17-.266.049-.776-.291-.969-.387-.121-.387.268-.632.389-.459.534-1.408,1.041-1.65,1.745-.168-.34.075-.776.268-1.044.461-.7,1.794-1.31,1.48-2.472-.34-.51-1.237-.461-1.261-.874.338-.049.436-.412.871-.268.049.268.34.17.51.268" transform="translate(-30.308 0.5)" fill="#161615" fill-rule="evenodd"/>
        <path id="Trazado_41" data-name="Trazado 41" d="M35.887,61.138c-.291.461-1.018.242-1.529.363-.34-.219-.1-.534-.049-.825.536-.315,1.142.121,1.578.461M35.5,59.1a1.177,1.177,0,0,0,.657.51c.485.776,1.31,1,1.866,1.722-.242.34-.1.9-.266,1.214-1.6.072-3.349-.2-4.852.217-.389-.072-.753.121-1.116,0a4.229,4.229,0,0,0,1.382-1.188A3.765,3.765,0,0,0,32.685,59a.916.916,0,0,1,.485-.825,4.024,4.024,0,0,1,2.328.92" transform="translate(-30.881 3.562)" fill="#161615" fill-rule="evenodd"/>
        <path id="Trazado_42" data-name="Trazado 42" d="M36.176,66.784c.023.219-.147.436-.389.34a3.394,3.394,0,0,1-2.013-.461.718.718,0,0,1-.17-.583c-.242-.387-.8-.8-.534-1.31a5.338,5.338,0,0,1,3.106,2.013m.776-2.086.485.459a3.182,3.182,0,0,1-.485,1.967,1.566,1.566,0,0,1-1.093,1.067c-1.09.1-2.645.314-3.179-.753a7.854,7.854,0,0,0-1.212-1.918c-.219-1.018.7-1.624,1.382-2.181,1.7-.487,2.789.871,4.1,1.359" transform="translate(-31.436 11.551)" fill="#161615" fill-rule="evenodd"/>
        <path id="Trazado_43" data-name="Trazado 43" d="M35.389,60.874A4.542,4.542,0,0,1,37.232,62.4c.314.193.147.655.121.944-.314.438-.17,1.482-.946,1.41-.606-.583-.363-1.748-1.31-2.062a2.426,2.426,0,0,0-2.281-.776c-.557.217-.34.825-.51,1.212.461.655.34,2.111,1.65,1.843.34.34.972.075,1.263.389.485-.1.727.389,1.237.266-.049.219.193.147.291.219a1.484,1.484,0,0,0-.266.776c-.075.026-.173-.023-.219.049v.1a12.906,12.906,0,0,0-4.586-.7c.1-.1-.147-.193-.219-.219.1.075.17-.1.147-.219.291-.266.606-.459.727-.822-.147-.851-.923-1.093-.681-2.111a3.818,3.818,0,0,0,.51-1.119,3.822,3.822,0,0,1,1.578-1.067c.534.173,1.188,0,1.65.366" transform="translate(-31.402 7.247)" fill="#161615"/>
        <path id="Trazado_44" data-name="Trazado 44" d="M37.437,66.131c-.049,1.578-1.6,2.062-2.521,2.962.314.678,1.261.387,1.866.583l1.31.168c-.121,0-.072.291,0,.219-.242.17,0,.946-.508.972a4.969,4.969,0,0,1-2.4-.219,11.062,11.062,0,0,1-2.717-.485h-.534c-.147-.34.387-.608.583-.753a3.149,3.149,0,0,0,1.261-.436c.681.046.776-.874,1.408-1a.916.916,0,0,0,.34-.608,8.8,8.8,0,0,0-2.838-.871,1.59,1.59,0,0,0-.972-.2c.219-.436.851-.753,1.191-1.163a17.009,17.009,0,0,0,4.535.822" transform="translate(-31.001 14.823)" fill="#161615"/>
        <path id="Trazado_45" data-name="Trazado 45" d="M37.751,76.115c0,.1.023.219-.1.268s-.193-.049-.291-.072c.1-.1.268-.534.389-.2m2.4-1.866c.34.338.268,1.09.219,1.624-.387,1.188-2.013,1.286-2.232,2.694a4.394,4.394,0,0,0-2.086,1.261c-.049-.338-.291-.217-.268-.606.268-.871,1.263-1.359,1.093-2.4-.485-1.31-3.008.461-2.671-1.6.851-1.408,2.913-.776,4.37-1.188.606-.121,1.018.219,1.575.219" transform="translate(-27.115 28.542)" fill="#161615" fill-rule="evenodd"/>
        <path id="Trazado_46" data-name="Trazado 46" d="M47.014,86.684a1.582,1.582,0,0,1-1.067,1.041,2.428,2.428,0,0,1-.557-.557c.461-.363,1.044-.776,1.624-.485m-5.287-7.257c.1.874-.946,1-1.529,1.312-.753.049-1.725.217-2.111-.559.436-.7,1.454-.753,2.183-1.09.557-.072.946.291,1.457.338m.727-1.261c.219.17.1.51.363.655a3.23,3.23,0,0,1-.655,2.668c.049.1.121.245.268.219.946.17,1.624-.92,2.426-.219a1.021,1.021,0,0,0,.144.487c-.144,0-.121.17-.17.217-1.237.73-2.838.608-3.808,1.748.121,1.067.969,1.578,1.794,2.086a13.863,13.863,0,0,0,3.323-.871c.438-.075.9-.487,1.312-.075a1.673,1.673,0,0,0,1.044-.144c.557.17.41.848.7,1.237.049.534-.75.923-.92,1.48-1.286.727-1.99,2.281-3.2,2.91l-.168-.121c-.075.026-.026.121-.049.17,0-.485-.461-1.624.412-1.7.242-.1.023-.291.023-.436-.7-.389-1.359-1.673-2.354-.969-.072.242-.412.193-.606.144.193-.049,0-.193,0-.315.193-.8-.583-.923-1.044-1.263a1.722,1.722,0,0,1-.92-.969l-.1-1.964c.291-.049.219-.389.219-.559a16.83,16.83,0,0,0-2.477-.389.414.414,0,0,0-.436-.168c-.1-1-1.31-1.6-.485-2.622.121-.291.387-.436.557-.655a6.3,6.3,0,0,1,3.542-1.31,2.39,2.39,0,0,1,1.263.727" transform="translate(-22.963 33.964)" fill="#161615" fill-rule="evenodd"/>
        <path id="Trazado_47" data-name="Trazado 47" d="M37.244,71.618a2.345,2.345,0,0,1,.485,1.139.461.461,0,0,1,.17.606c-.291.317-.825.17-1.212.147a3.045,3.045,0,0,1-.874-2.062.969.969,0,0,1,1.431.17m3.372,6.21a1.146,1.146,0,0,1,.049.7c-.266.363-.874.219-1.237.121-.17-.072-.727-.144-.389-.485.487-.219,1.044-.923,1.578-.34m-2.668-7.375c.049.534.34,1.018.436,1.575.121.049.121.34.17.51.317.946,1.286,1.431,1.408,2.4.049.193-.144.389.049.534-1.018.219-2.013-1.165-3.228-.485-.459.776-.193,1.843-.534,2.668a.389.389,0,0,0,.34.438c1.093-.73,2.622-.8,3.689-1.529.776.023.629.946.946,1.431.023.242-.049.606.217.655-.266.121-.121.557-.338.655-.17.387-.7.387-1.093.485l-1.263-.266c-.871-.17-1.48-1.359-2.449-.608-.266.124-.534-.023-.8-.046a.841.841,0,0,0,.217-.73c-.144-.315-.51-.1-.678-.364-1.214-.34-1.529-1.82-2.4-2.57.242.072.923-.2,1.116.217.51.1.776.727,1.286.923a.607.607,0,0,0,.557.219,1.776,1.776,0,0,0,.121-1.191c.242-.363.072-.871.363-1.212.147-.461-.459-.412-.534-.753a4.484,4.484,0,0,0-1.31-2.013c-.315-.023-.8-.121-.946.266a3.724,3.724,0,0,0,.681,2.4.265.265,0,0,0,.193.317c-.363.193-.193-.366-.485-.317.046-.17-.17-.17-.219-.219-.17-.508-.753-.8-.8-1.359a1.479,1.479,0,0,1-.072-1.163c.1.023.147-.049.219-.1.072-.242.508-.049.655-.34.727.049.9-1.286,1.6-.485.632,0,1.505.242,1.794-.485V69.8c.366.217.7.436,1.093.655" transform="translate(-29.764 21.906)" fill="#161615" fill-rule="evenodd"/>
        <path id="Trazado_48" data-name="Trazado 48" d="M39,75.535c0,.461.363.753.363,1.214.242.387-.023,1.139.606,1.31.2.049.681.17.438.436-.412.121-.681.461-1.191.268-.289-.291-.871-.268-.773-.825-.219-.317-.124-.8-.268-1.188a4.684,4.684,0,0,0-.559-1.578l.049-.291c.389.1.851.583,1.335.655" transform="translate(-21.69 29.925)" fill="#161615"/>
        <path id="Trazado_49" data-name="Trazado 49" d="M40.533,76.156l-.049.753a8.673,8.673,0,0,0-.655.874c-.266.193-.217.583-.217.92.144.389.436.026.606-.046a2.047,2.047,0,0,1,.923-.608,1.673,1.673,0,0,1,.727.655,1.478,1.478,0,0,1-.655.946,10.684,10.684,0,0,0-1.6,1.361,5.891,5.891,0,0,0-2.111.871c.072-.121-.072-.121-.121-.17h-.1V80.67c.776-.776,1.725-1.676,1.578-2.985-.242-.266-.583-.023-.874-.023a7.34,7.34,0,0,0-1.163.606,2.031,2.031,0,0,0-.972.485l-.389-.049c.026-.266-.266-.193-.217-.485.776-1.457,2.763-1.188,3.712-2.717a2.032,2.032,0,0,1,1.575.655" transform="translate(-25.435 30.905)" fill="#161615"/>
        <path id="Trazado_50" data-name="Trazado 50" d="M35.606,65.6c-.7-.668-.25-.26-1.181-.828-.281-.5-.384-.276-.175-.433.325-.206.758-.322.907.028.7,1.011.9,1.317.449,1.232" transform="translate(-27.171 12.983)" fill="#161615"/>
        <path id="Trazado_51" data-name="Trazado 51" d="M51.824,84.365c-.9.351-.34.121-1.25.722-.572.044-.41.232-.464-.023-.049-.384.028-.825.41-.812,1.212-.211,1.573-.258,1.3.113" transform="translate(-1.992 44.455)" fill="#161615"/>
      </g>
    </g>
  </g>
</svg>
